<?xml version="1.0" standalone="no"?>
<!DOCTYPE svg PUBLIC "-//W3C//DTD SVG 20010904//EN"
 "http://www.w3.org/TR/2001/REC-SVG-20010904/DTD/svg10.dtd">
<svg version="1.0" xmlns="http://www.w3.org/2000/svg"
 width="512.000000pt" height="512.000000pt" viewBox="0 0 512.000000 512.000000"
 preserveAspectRatio="xMidYMid meet">
<metadata>
Created by potrace 1.14, written by Peter Selinger 2001-2017
</metadata>
<g transform="translate(0.000000,512.000000) scale(0.100000,-0.100000)"
fill="#000000" stroke="none">
<path d="M1727 4484 c-1 -1 -24 -5 -52 -8 -138 -19 -270 -62 -404 -133 -163
-87 -277 -185 -399 -341 -99 -128 -195 -346 -217 -492 -2 -19 -8 -60 -13 -90
-4 -30 -8 -669 -7 -1420 l0 -1365 478 0 c472 0 477 0 478 20 0 11 1 621 2
1355 l2 1335 21 40 c44 81 118 132 200 139 98 7 194 -47 237 -134 l27 -53 0
-1345 c0 -739 2 -1347 4 -1351 2 -3 217 -6 478 -6 l473 0 5 1360 5 1360 27 46
c101 171 335 163 431 -16 l22 -40 2 -1170 c1 -643 2 -1253 3 -1355 l0 -185
473 0 c259 0 474 3 477 7 3 3 5 631 4 1395 -1 1442 0 1393 -38 1558 -9 41 -60
172 -87 228 -118 234 -307 421 -542 536 -176 86 -329 123 -512 124 -259 2
-439 -48 -659 -180 l-88 -54 -77 49 c-148 94 -332 162 -486 178 -54 6 -264 12
-268 8z"/>
</g>
</svg>
