<svg id="Layer_1" data-name="Layer 1" xmlns="http://www.w3.org/2000/svg" viewBox="0 0 405.04 512"><defs><style>.cls-1{fill:#c77dff;}</style></defs><path class="cls-1" d="M370.05,512H167.6c-13.28,0-24.52-11-24.53-24a24,24,0,0,1,24-24.06H234a10.82,10.82,0,0,0,10.81-10.81V268.85a37.57,37.57,0,0,0-11.11-26.57L101,111.28a6.87,6.87,0,0,1,9.65-9.77l132.72,131a51.39,51.39,0,0,1,15.19,36.34V453.14A24.57,24.57,0,0,1,234,477.68H167.09A10.29,10.29,0,0,0,156.79,488c0,5.48,5.06,10.28,10.81,10.28H370.05c5.88,0,10.76-4.53,10.86-10.09a10.3,10.3,0,0,0-10.29-10.5H303.69a24.57,24.57,0,0,1-24.54-24.54V268.85a51.41,51.41,0,0,1,15.19-36.34l132.72-131a6.86,6.86,0,1,1,9.64,9.77L304,242.28a37.57,37.57,0,0,0-11.11,26.57V453.14A10.82,10.82,0,0,0,303.69,464h66.93a24,24,0,0,1,24,24.49C394.39,501.43,383.36,512,370.05,512Z" transform="translate(-53.48 0)"/><path class="cls-1" d="M326.17,131.62c-21.82,0-37.8-4.19-54.65-8.61-14-3.68-28.56-7.49-47.41-8.83a211.72,211.72,0,0,0-69.47,7.06A6.87,6.87,0,0,1,151.1,108a225.14,225.14,0,0,1,74-7.48c20.13,1.43,35.28,5.4,49.93,9.24,17.21,4.52,33.49,8.78,56.15,8.09a172.1,172.1,0,0,0,51.41-9.69,6.86,6.86,0,1,1,4.54,13,185.31,185.31,0,0,1-55.53,10.46C329.74,131.59,327.94,131.62,326.17,131.62Z" transform="translate(-53.48 0)"/><path class="cls-1" d="M458.33,79.44,440.27,5.23A6.9,6.9,0,0,0,433.42,0L357.07,2a6.86,6.86,0,0,0-4,12.31l40,30.64a2.24,2.24,0,0,1,.42,3.14L360.35,91.39a6.85,6.85,0,0,0,1.28,9.62,6.87,6.87,0,0,0,9.62-1.28l33.18-43.34a2.24,2.24,0,0,1,3.14-.42L447.5,86.51a6.76,6.76,0,0,0,4.17,1.42,6.85,6.85,0,0,0,6.66-8.49Zm-79-64.32,45.9-1.18a3.69,3.69,0,0,1,3.68,2.82l10.87,44.62a.88.88,0,0,1-1.39.91L378.85,16.7A.88.88,0,0,1,379.36,15.12Z" transform="translate(-53.48 0)"/><path class="cls-1" d="M121.36,180.1A67.88,67.88,0,1,1,179.24,76.77,6.86,6.86,0,0,1,167.54,84a54.15,54.15,0,1,0-46.18,82.42,54.85,54.85,0,0,0,10.49-1,6.86,6.86,0,0,1,2.64,13.47A68.66,68.66,0,0,1,121.36,180.1Z" transform="translate(-53.48 0)"/></svg>