<svg id="Layer_1" data-name="Layer 1" xmlns="http://www.w3.org/2000/svg" viewBox="0 0 512 512"><defs><style>.cls-1{fill:#662d91;}.cls-2{fill:#7c44a8;}.cls-3{fill:#7d45a9;}.cls-4{fill:#7e46a9;}.cls-5{fill:#7e47aa;}.cls-6{fill:#7f48aa;}.cls-7{fill:#8049ab;}.cls-8{fill:#814aab;}.cls-9{fill:#824bac;}.cls-10{fill:#824cad;}.cls-11{fill:#834dad;}.cls-12{fill:#844eae;}.cls-13{fill:#854fae;}.cls-14{fill:#8550af;}.cls-15{fill:#8651b0;}.cls-16{fill:#8752b0;}.cls-17{fill:#8853b1;}.cls-18{fill:#8954b1;}.cls-19{fill:#8955b2;}.cls-20{fill:#8a56b2;}.cls-21{fill:#8b57b3;}.cls-22{fill:#8c58b4;}.cls-23{fill:#8d59b4;}.cls-24{fill:#8d5ab5;}.cls-25{fill:#8e5bb5;}.cls-26{fill:#8f5cb6;}.cls-27{fill:#905db7;}.cls-28{fill:#905eb7;}.cls-29{fill:#915fb8;}.cls-30{fill:#9260b8;}.cls-31{fill:#9361b9;}.cls-32{fill:#9462b9;}.cls-33{fill:#9463ba;}.cls-34{fill:#9564bb;}.cls-35{fill:#9665bb;}.cls-36{fill:#9766bc;}.cls-37{fill:#9867bc;}.cls-38{fill:#9868bd;}.cls-39{fill:#9969bd;}.cls-40{fill:#9a6abe;}.cls-41{fill:#9b6bbf;}.cls-42{fill:#9b6cbf;}.cls-43{fill:#9c6dc0;}.cls-44{fill:#9d6ec0;}.cls-45{fill:#9e6fc1;}.cls-46{fill:#9f70c2;}.cls-47{fill:#9f71c2;}.cls-48{fill:#a072c3;}.cls-49{fill:#a173c3;}.cls-50{fill:#a274c4;}.cls-51{fill:#a375c4;}.cls-52{fill:#a376c5;}.cls-53{fill:#a477c6;}.cls-54{fill:#a578c6;}.cls-55{fill:#a679c7;}.cls-56{fill:#a67ac7;}.cls-57{fill:#a77bc8;}.cls-58{fill:#a87cc8;}.cls-59{fill:#a97dc9;}.cls-60{fill:#aa7eca;}.cls-61{fill:#aa7fca;}.cls-62{fill:#ab80cb;}.cls-63{fill:#ac81cb;}.cls-64{fill:#ad82cc;}.cls-65{fill:#ae83cd;}.cls-66{fill:#ae84cd;}.cls-67{fill:#af85ce;}.cls-68{fill:#b086ce;}.cls-69{fill:#b187cf;}.cls-70{fill:#b188cf;}.cls-71{fill:#b289d0;}.cls-72{fill:#b38ad1;}.cls-73{fill:#b48bd1;}.cls-74{fill:#b58cd2;}.cls-75{fill:#b58dd2;}.cls-76{fill:#b68ed3;}.cls-77{fill:#b78fd3;}.cls-78{fill:#b890d4;}.cls-79{fill:#b991d5;}.cls-80{fill:#b992d5;}.cls-81{fill:#ba93d6;}.cls-82{fill:#bb94d6;}.cls-83{fill:#bc95d7;}.cls-84{fill:#bd96d8;}.cls-85{fill:#bd97d8;}.cls-86{fill:#be98d9;}.cls-87{fill:#bf99d9;}.cls-88{fill:#c09ada;}.cls-89{fill:#c09bda;}.cls-90{fill:#c19cdb;}.cls-91{fill:#c29ddc;}.cls-92{fill:#c39edc;}.cls-93{fill:#c49fdd;}.cls-94{fill:#c4a0dd;}.cls-95{fill:#c5a1de;}.cls-96{fill:#c6a2df;}.cls-97{fill:#c7a3df;}.cls-98{fill:#c8a4e0;}.cls-99{fill:#c8a5e0;}.cls-100{fill:#c9a6e1;}.cls-101{fill:#caa7e1;}.cls-102{fill:#cba8e2;}.cls-103{fill:#cba9e3;}.cls-104{fill:#ccaae3;}.cls-105{fill:#cdabe4;}.cls-106{fill:#ceace4;}.cls-107{fill:#cfade5;}.cls-108{fill:#cfaee5;}.cls-109{fill:#d0afe6;}.cls-110{fill:#d1b0e7;}.cls-111{fill:#d2b1e7;}.cls-112{fill:#d3b2e8;}.cls-113{fill:#d3b3e8;}.cls-114{fill:#d4b4e9;}.cls-115{fill:#d5b5ea;}.cls-116{fill:#d6b6ea;}.cls-117{fill:#d6b7eb;}.cls-118{fill:#d7b8eb;}.cls-119{fill:#d8b9ec;}.cls-120{fill:#d9baec;}.cls-121{fill:#dabbed;}.cls-122{fill:#dabcee;}.cls-123{fill:#dbbdee;}.cls-124{fill:#dcbeef;}.cls-125{fill:#ddbfef;}.cls-126{fill:#dec0f0;}.cls-127{fill:#dec1f0;}.cls-128{fill:#dfc2f1;}.cls-129{fill:#e0c3f2;}.cls-130{fill:#e1c4f2;}.cls-131{fill:#e1c5f3;}.cls-132{fill:#e2c6f3;}.cls-133{fill:#e3c7f4;}.cls-134{fill:#e4c8f5;}.cls-135{fill:#e5c9f5;}.cls-136{fill:#e5caf6;}.cls-137{fill:#e6cbf6;}.cls-138{fill:#e7ccf7;}.cls-139{fill:#e8cdf7;}.cls-140{fill:#e9cef8;}.cls-141{fill:#e9cff9;}.cls-142{fill:#ead0f9;}.cls-143{fill:#ebd1fa;}.cls-144{fill:#ecd2fa;}.cls-145{fill:#ecd3fb;}.cls-146{fill:#edd4fc;}.cls-147{fill:#eed5fc;}.cls-148{fill:#efd6fd;}.cls-149{fill:#f0d7fd;}.cls-150{fill:#f0d8fe;}.cls-151{fill:#f1d9fe;}.cls-152{fill:#f2daff;}</style></defs><rect class="cls-1" width="512" height="512"/><path class="cls-2" d="M388.5,211.41V387.5H324.85V211.41a16.27,16.27,0,0,0-32.53,0V387.5H228.68V211.41a16.28,16.28,0,0,0-32.55,0V387.5H132.5V211.41a79.93,79.93,0,0,1,128-63.84,79.93,79.93,0,0,1,128,63.84Z" transform="translate(0 0)"/><path class="cls-3" d="M388.44,211.37V387.45H324.79V211.37a16.27,16.27,0,0,0-32.53,0V387.45H228.62V211.37a16.28,16.28,0,0,0-32.55,0V387.45H132.44V211.37a79.94,79.94,0,0,1,128-63.85,79.94,79.94,0,0,1,128,63.85Z" transform="translate(0 0)"/><path class="cls-4" d="M388.38,211.32V387.4H324.73V211.32a16.27,16.27,0,0,0-32.53,0V387.4H228.56V211.32a16.28,16.28,0,0,0-32.55,0V387.4H132.38V211.32a79.93,79.93,0,0,1,128-63.84,79.93,79.93,0,0,1,128,63.84Z" transform="translate(0 0)"/><path class="cls-5" d="M388.32,211.27V387.36H324.67V211.27a16.27,16.27,0,0,0-32.53,0V387.36H228.5V211.27a16.28,16.28,0,0,0-32.55,0V387.36H132.32V211.27a79.93,79.93,0,0,1,128-63.84,79.93,79.93,0,0,1,128,63.84Z" transform="translate(0 0)"/><path class="cls-6" d="M388.26,211.23V387.31H324.61V211.23a16.27,16.27,0,0,0-32.53,0V387.31H228.44V211.23a16.28,16.28,0,0,0-32.55,0V387.31H132.26V211.23a79.94,79.94,0,0,1,128-63.85,79.94,79.94,0,0,1,128,63.85Z" transform="translate(0 0)"/><path class="cls-7" d="M388.2,211.18V387.26H324.55V211.18a16.27,16.27,0,0,0-32.53,0V387.26H228.38V211.18a16.28,16.28,0,0,0-32.55,0V387.26H132.2V211.18a79.93,79.93,0,0,1,128-63.84,79.93,79.93,0,0,1,128,63.84Z" transform="translate(0 0)"/><path class="cls-8" d="M388.14,211.13V387.22H324.49V211.13a16.27,16.27,0,0,0-32.53,0V387.22H228.32V211.13a16.28,16.28,0,0,0-32.55,0V387.22H132.14V211.13a79.93,79.93,0,0,1,128-63.84,79.93,79.93,0,0,1,128,63.84Z" transform="translate(0 0)"/><path class="cls-9" d="M388.08,211.09V387.17H324.43V211.09a16.27,16.27,0,0,0-32.53,0V387.17H228.26V211.09a16.28,16.28,0,0,0-32.55,0V387.17H132.08V211.09a79.94,79.94,0,0,1,128-63.85,79.94,79.94,0,0,1,128,63.85Z" transform="translate(0 0)"/><path class="cls-10" d="M388,211V387.12H324.37V211a16.27,16.27,0,0,0-32.53,0V387.12H228.2V211a16.28,16.28,0,0,0-32.55,0V387.12H132V211A79.93,79.93,0,0,1,260,147.2,79.93,79.93,0,0,1,388,211Z" transform="translate(0 0)"/><path class="cls-11" d="M388,211V387.08H324.31V211a16.27,16.27,0,0,0-32.53,0V387.08H228.14V211a16.28,16.28,0,0,0-32.55,0V387.08H132V211a79.93,79.93,0,0,1,128-63.84A79.93,79.93,0,0,1,388,211Z" transform="translate(0 0)"/><path class="cls-12" d="M387.9,211V387H324.25V211a16.27,16.27,0,0,0-32.53,0V387H228.08V211a16.28,16.28,0,0,0-32.55,0V387H131.9V211a79.94,79.94,0,0,1,128-63.85A79.94,79.94,0,0,1,387.9,211Z" transform="translate(0 0)"/><path class="cls-13" d="M387.84,210.9V387H324.19V210.9a16.27,16.27,0,0,0-32.53,0V387H228V210.9a16.28,16.28,0,0,0-32.55,0V387H131.84V210.9a79.93,79.93,0,0,1,128-63.84,79.93,79.93,0,0,1,128,63.84Z" transform="translate(0 0)"/><path class="cls-14" d="M387.78,210.85V386.94H324.13V210.85a16.27,16.27,0,0,0-32.53,0V386.94H228V210.85a16.28,16.28,0,0,0-32.55,0V386.94H131.78V210.85a79.93,79.93,0,0,1,128-63.84,79.93,79.93,0,0,1,128,63.84Z" transform="translate(0 0)"/><path class="cls-15" d="M387.72,210.81V386.89H324.07V210.81a16.27,16.27,0,0,0-32.53,0V386.89H227.9V210.81a16.28,16.28,0,0,0-32.55,0V386.89H131.72V210.81a79.94,79.94,0,0,1,128-63.85,79.94,79.94,0,0,1,128,63.85Z" transform="translate(0 0)"/><path class="cls-16" d="M387.66,210.76V386.84H324V210.76a16.27,16.27,0,0,0-32.53,0V386.84H227.84V210.76a16.28,16.28,0,0,0-32.55,0V386.84H131.66V210.76a79.93,79.93,0,0,1,128-63.84,79.93,79.93,0,0,1,128,63.84Z" transform="translate(0 0)"/><path class="cls-17" d="M387.6,210.71V386.8H324V210.71a16.27,16.27,0,0,0-32.53,0V386.8H227.78V210.71a16.28,16.28,0,0,0-32.55,0V386.8H131.6V210.71a79.93,79.93,0,0,1,128-63.84,79.93,79.93,0,0,1,128,63.84Z" transform="translate(0 0)"/><path class="cls-18" d="M387.54,210.67V386.75H323.89V210.67a16.27,16.27,0,0,0-32.53,0V386.75H227.72V210.67a16.28,16.28,0,0,0-32.55,0V386.75H131.54V210.67a79.94,79.94,0,0,1,128-63.85,79.94,79.94,0,0,1,128,63.85Z" transform="translate(0 0)"/><path class="cls-19" d="M387.48,210.62V386.7H323.83V210.62a16.27,16.27,0,0,0-32.53,0V386.7H227.66V210.62a16.28,16.28,0,0,0-32.55,0V386.7H131.48V210.62a79.93,79.93,0,0,1,128-63.84,79.93,79.93,0,0,1,128,63.84Z" transform="translate(0 0)"/><path class="cls-20" d="M387.42,210.57V386.66H323.77V210.57a16.27,16.27,0,0,0-32.53,0V386.66H227.6V210.57a16.28,16.28,0,0,0-32.55,0V386.66H131.42V210.57a79.93,79.93,0,0,1,128-63.84,79.93,79.93,0,0,1,128,63.84Z" transform="translate(0 0)"/><path class="cls-21" d="M387.36,210.53V386.61H323.71V210.53a16.27,16.27,0,0,0-32.53,0V386.61H227.54V210.53a16.28,16.28,0,0,0-32.55,0V386.61H131.36V210.53a79.94,79.94,0,0,1,128-63.85,79.94,79.94,0,0,1,128,63.85Z" transform="translate(0 0)"/><path class="cls-22" d="M387.3,210.48V386.56H323.65V210.48a16.27,16.27,0,0,0-32.53,0V386.56H227.48V210.48a16.28,16.28,0,0,0-32.55,0V386.56H131.3V210.48a79.93,79.93,0,0,1,128-63.84,79.93,79.93,0,0,1,128,63.84Z" transform="translate(0 0)"/><path class="cls-23" d="M387.24,210.43V386.52H323.59V210.43a16.27,16.27,0,0,0-32.53,0V386.52H227.42V210.43a16.28,16.28,0,0,0-32.55,0V386.52H131.24V210.43a79.93,79.93,0,0,1,128-63.84,79.93,79.93,0,0,1,128,63.84Z" transform="translate(0 0)"/><path class="cls-24" d="M387.18,210.39V386.47H323.53V210.39a16.27,16.27,0,0,0-32.53,0V386.47H227.36V210.39a16.28,16.28,0,0,0-32.55,0V386.47H131.18V210.39a79.94,79.94,0,0,1,128-63.85,79.94,79.94,0,0,1,128,63.85Z" transform="translate(0 0)"/><path class="cls-25" d="M387.12,210.34V386.42H323.47V210.34a16.27,16.27,0,0,0-32.53,0V386.42H227.3V210.34a16.28,16.28,0,0,0-32.55,0V386.42H131.12V210.34a79.93,79.93,0,0,1,128-63.84,79.93,79.93,0,0,1,128,63.84Z" transform="translate(0 0)"/><path class="cls-26" d="M387.06,210.29V386.38H323.41V210.29a16.27,16.27,0,0,0-32.53,0V386.38H227.24V210.29a16.28,16.28,0,0,0-32.55,0V386.38H131.06V210.29a79.93,79.93,0,0,1,128-63.84,79.93,79.93,0,0,1,128,63.84Z" transform="translate(0 0)"/><path class="cls-27" d="M387,210.25V386.33H323.35V210.25a16.27,16.27,0,0,0-32.53,0V386.33H227.18V210.25a16.28,16.28,0,0,0-32.55,0V386.33H131V210.25A79.94,79.94,0,0,1,259,146.4a79.94,79.94,0,0,1,128,63.85Z" transform="translate(0 0)"/><path class="cls-28" d="M386.94,210.2V386.28H323.29V210.2a16.27,16.27,0,0,0-32.53,0V386.28H227.12V210.2a16.28,16.28,0,0,0-32.55,0V386.28H130.94V210.2a79.93,79.93,0,0,1,128-63.84,79.93,79.93,0,0,1,128,63.84Z" transform="translate(0 0)"/><path class="cls-29" d="M386.88,210.15V386.24H323.23V210.15a16.27,16.27,0,0,0-32.53,0V386.24H227.06V210.15a16.28,16.28,0,0,0-32.55,0V386.24H130.88V210.15a79.93,79.93,0,0,1,128-63.84,79.93,79.93,0,0,1,128,63.84Z" transform="translate(0 0)"/><path class="cls-30" d="M386.82,210.11V386.19H323.17V210.11a16.27,16.27,0,0,0-32.53,0V386.19H227V210.11a16.28,16.28,0,0,0-32.55,0V386.19H130.82V210.11a79.94,79.94,0,0,1,128-63.85,79.94,79.94,0,0,1,128,63.85Z" transform="translate(0 0)"/><path class="cls-31" d="M386.76,210.06V386.14H323.11V210.06a16.27,16.27,0,0,0-32.53,0V386.14H226.94V210.06a16.28,16.28,0,0,0-32.55,0V386.14H130.76V210.06a79.93,79.93,0,0,1,128-63.84,79.93,79.93,0,0,1,128,63.84Z" transform="translate(0 0)"/><path class="cls-32" d="M386.7,210V386.1H323.05V210a16.27,16.27,0,0,0-32.53,0V386.1H226.88V210a16.28,16.28,0,0,0-32.55,0V386.1H130.7V210a79.93,79.93,0,0,1,128-63.84A79.93,79.93,0,0,1,386.7,210Z" transform="translate(0 0)"/><path class="cls-33" d="M386.64,210V386.05H323V210a16.27,16.27,0,0,0-32.53,0V386.05H226.82V210a16.28,16.28,0,0,0-32.55,0V386.05H130.64V210a79.94,79.94,0,0,1,128-63.85,79.94,79.94,0,0,1,128,63.85Z" transform="translate(0 0)"/><path class="cls-34" d="M386.58,209.92V386H322.93V209.92a16.27,16.27,0,0,0-32.53,0V386H226.76V209.92a16.28,16.28,0,0,0-32.55,0V386H130.58V209.92a79.93,79.93,0,0,1,128-63.84,79.93,79.93,0,0,1,128,63.84Z" transform="translate(0 0)"/><path class="cls-35" d="M386.52,209.87V386H322.87V209.87a16.27,16.27,0,0,0-32.53,0V386H226.7V209.87a16.28,16.28,0,0,0-32.55,0V386H130.52V209.87a79.93,79.93,0,0,1,128-63.84,79.93,79.93,0,0,1,128,63.84Z" transform="translate(0 0)"/><path class="cls-36" d="M386.46,209.83V385.91H322.81V209.83a16.27,16.27,0,0,0-32.53,0V385.91H226.64V209.83a16.28,16.28,0,0,0-32.55,0V385.91H130.46V209.83a79.94,79.94,0,0,1,128-63.85,79.94,79.94,0,0,1,128,63.85Z" transform="translate(0 0)"/><path class="cls-37" d="M386.4,209.78V385.86H322.75V209.78a16.27,16.27,0,0,0-32.53,0V385.86H226.58V209.78a16.28,16.28,0,0,0-32.55,0V385.86H130.4V209.78a79.93,79.93,0,0,1,128-63.84,79.93,79.93,0,0,1,128,63.84Z" transform="translate(0 0)"/><path class="cls-38" d="M386.34,209.73V385.82H322.69V209.73a16.27,16.27,0,0,0-32.53,0V385.82H226.52V209.73a16.28,16.28,0,0,0-32.55,0V385.82H130.34V209.73a79.93,79.93,0,0,1,128-63.84,79.93,79.93,0,0,1,128,63.84Z" transform="translate(0 0)"/><path class="cls-39" d="M386.28,209.69V385.77H322.63V209.69a16.27,16.27,0,0,0-32.53,0V385.77H226.46V209.69a16.28,16.28,0,0,0-32.55,0V385.77H130.28V209.69a79.94,79.94,0,0,1,128-63.85,79.94,79.94,0,0,1,128,63.85Z" transform="translate(0 0)"/><path class="cls-40" d="M386.22,209.64V385.72H322.57V209.64a16.27,16.27,0,0,0-32.53,0V385.72H226.4V209.64a16.28,16.28,0,0,0-32.55,0V385.72H130.22V209.64a79.93,79.93,0,0,1,128-63.84,79.93,79.93,0,0,1,128,63.84Z" transform="translate(0 0)"/><path class="cls-41" d="M386.16,209.59V385.68H322.51V209.59a16.27,16.27,0,0,0-32.53,0V385.68H226.34V209.59a16.28,16.28,0,0,0-32.55,0V385.68H130.16V209.59a79.93,79.93,0,0,1,128-63.84,79.93,79.93,0,0,1,128,63.84Z" transform="translate(0 0)"/><path class="cls-42" d="M386.1,209.55V385.63H322.45V209.55a16.27,16.27,0,0,0-32.53,0V385.63H226.28V209.55a16.28,16.28,0,0,0-32.55,0V385.63H130.1V209.55a79.94,79.94,0,0,1,128-63.85,79.94,79.94,0,0,1,128,63.85Z" transform="translate(0 0)"/><path class="cls-43" d="M386,209.5V385.58H322.39V209.5a16.27,16.27,0,0,0-32.53,0V385.58H226.22V209.5a16.28,16.28,0,0,0-32.55,0V385.58H130V209.5a79.93,79.93,0,0,1,128-63.84A79.93,79.93,0,0,1,386,209.5Z" transform="translate(0 0)"/><path class="cls-44" d="M386,209.45V385.54H322.33V209.45a16.27,16.27,0,0,0-32.53,0V385.54H226.16V209.45a16.28,16.28,0,0,0-32.55,0V385.54H130V209.45a79.93,79.93,0,0,1,128-63.84,79.93,79.93,0,0,1,128,63.84Z" transform="translate(0 0)"/><path class="cls-45" d="M385.92,209.41V385.49H322.27V209.41a16.27,16.27,0,0,0-32.53,0V385.49H226.1V209.41a16.28,16.28,0,0,0-32.55,0V385.49H129.92V209.41a79.94,79.94,0,0,1,128-63.85,79.94,79.94,0,0,1,128,63.85Z" transform="translate(0 0)"/><path class="cls-46" d="M385.86,209.36V385.44H322.21V209.36a16.27,16.27,0,0,0-32.53,0V385.44H226V209.36a16.28,16.28,0,0,0-32.55,0V385.44H129.86V209.36a79.93,79.93,0,0,1,128-63.84,79.93,79.93,0,0,1,128,63.84Z" transform="translate(0 0)"/><path class="cls-47" d="M385.8,209.31V385.4H322.15V209.31a16.27,16.27,0,0,0-32.53,0V385.4H226V209.31a16.28,16.28,0,0,0-32.55,0V385.4H129.8V209.31a79.93,79.93,0,0,1,128-63.84,79.93,79.93,0,0,1,128,63.84Z" transform="translate(0 0)"/><path class="cls-48" d="M385.74,209.27V385.35H322.09V209.27a16.27,16.27,0,0,0-32.53,0V385.35H225.92V209.27a16.28,16.28,0,0,0-32.55,0V385.35H129.74V209.27a79.94,79.94,0,0,1,128-63.85,79.94,79.94,0,0,1,128,63.85Z" transform="translate(0 0)"/><path class="cls-49" d="M385.68,209.22V385.3H322V209.22a16.27,16.27,0,0,0-32.53,0V385.3H225.86V209.22a16.28,16.28,0,0,0-32.55,0V385.3H129.68V209.22a79.93,79.93,0,0,1,128-63.84,79.93,79.93,0,0,1,128,63.84Z" transform="translate(0 0)"/><path class="cls-50" d="M385.62,209.17V385.26H322V209.17a16.27,16.27,0,0,0-32.53,0V385.26H225.8V209.17a16.28,16.28,0,0,0-32.55,0V385.26H129.62V209.17a79.93,79.93,0,0,1,128-63.84,79.93,79.93,0,0,1,128,63.84Z" transform="translate(0 0)"/><path class="cls-51" d="M385.56,209.13V385.21H321.91V209.13a16.27,16.27,0,0,0-32.53,0V385.21H225.74V209.13a16.28,16.28,0,0,0-32.55,0V385.21H129.56V209.13a79.94,79.94,0,0,1,128-63.85,79.94,79.94,0,0,1,128,63.85Z" transform="translate(0 0)"/><path class="cls-52" d="M385.5,209.08V385.16H321.85V209.08a16.27,16.27,0,0,0-32.53,0V385.16H225.68V209.08a16.28,16.28,0,0,0-32.55,0V385.16H129.5V209.08a79.93,79.93,0,0,1,128-63.84,79.93,79.93,0,0,1,128,63.84Z" transform="translate(0 0)"/><path class="cls-53" d="M385.44,209V385.12H321.79V209a16.27,16.27,0,0,0-32.53,0V385.12H225.62V209a16.28,16.28,0,0,0-32.55,0V385.12H129.44V209a79.93,79.93,0,0,1,128-63.84,79.93,79.93,0,0,1,128,63.84Z" transform="translate(0 0)"/><path class="cls-54" d="M385.38,209V385.07H321.73V209a16.27,16.27,0,0,0-32.53,0V385.07H225.56V209A16.28,16.28,0,0,0,193,209V385.07H129.38V209a79.94,79.94,0,0,1,128-63.85,79.94,79.94,0,0,1,128,63.85Z" transform="translate(0 0)"/><path class="cls-55" d="M385.32,208.94V385H321.67V208.94a16.27,16.27,0,0,0-32.53,0V385H225.5V208.94a16.28,16.28,0,0,0-32.55,0V385H129.32V208.94a79.93,79.93,0,0,1,128-63.84,79.93,79.93,0,0,1,128,63.84Z" transform="translate(0 0)"/><path class="cls-56" d="M385.26,208.89V385H321.61V208.89a16.27,16.27,0,0,0-32.53,0V385H225.44V208.89a16.28,16.28,0,0,0-32.55,0V385H129.26V208.89a79.93,79.93,0,0,1,128-63.84,79.93,79.93,0,0,1,128,63.84Z" transform="translate(0 0)"/><path class="cls-57" d="M385.2,208.85V384.93H321.55V208.85a16.27,16.27,0,0,0-32.53,0V384.93H225.38V208.85a16.28,16.28,0,0,0-32.55,0V384.93H129.2V208.85A79.94,79.94,0,0,1,257.2,145a79.94,79.94,0,0,1,128,63.85Z" transform="translate(0 0)"/><path class="cls-58" d="M385.14,208.8V384.88H321.49V208.8a16.27,16.27,0,0,0-32.53,0V384.88H225.32V208.8a16.28,16.28,0,0,0-32.55,0V384.88H129.14V208.8a79.93,79.93,0,0,1,128-63.84,79.93,79.93,0,0,1,128,63.84Z" transform="translate(0 0)"/><path class="cls-59" d="M385.08,208.75V384.84H321.43V208.75a16.27,16.27,0,0,0-32.53,0V384.84H225.26V208.75a16.28,16.28,0,0,0-32.55,0V384.84H129.08V208.75a79.93,79.93,0,0,1,128-63.84,79.93,79.93,0,0,1,128,63.84Z" transform="translate(0 0)"/><path class="cls-60" d="M385,208.71V384.79H321.37V208.71a16.27,16.27,0,0,0-32.53,0V384.79H225.2V208.71a16.28,16.28,0,0,0-32.55,0V384.79H129V208.71a79.94,79.94,0,0,1,128-63.85,79.94,79.94,0,0,1,128,63.85Z" transform="translate(0 0)"/><path class="cls-61" d="M385,208.66V384.74H321.31V208.66a16.27,16.27,0,0,0-32.53,0V384.74H225.14V208.66a16.28,16.28,0,0,0-32.55,0V384.74H129V208.66a79.93,79.93,0,0,1,128-63.84,79.93,79.93,0,0,1,128,63.84Z" transform="translate(0 0)"/><path class="cls-62" d="M384.9,208.61V384.7H321.25V208.61a16.27,16.27,0,0,0-32.53,0V384.7H225.08V208.61a16.28,16.28,0,0,0-32.55,0V384.7H128.9V208.61a79.93,79.93,0,0,1,128-63.84,79.93,79.93,0,0,1,128,63.84Z" transform="translate(0 0)"/><path class="cls-63" d="M384.84,208.57V384.65H321.19V208.57a16.27,16.27,0,0,0-32.53,0V384.65H225V208.57a16.28,16.28,0,0,0-32.55,0V384.65H128.84V208.57a79.94,79.94,0,0,1,128-63.85,79.94,79.94,0,0,1,128,63.85Z" transform="translate(0 0)"/><path class="cls-64" d="M384.78,208.52V384.6H321.13V208.52a16.27,16.27,0,0,0-32.53,0V384.6H225V208.52a16.28,16.28,0,0,0-32.55,0V384.6H128.78V208.52a79.93,79.93,0,0,1,128-63.84,79.93,79.93,0,0,1,128,63.84Z" transform="translate(0 0)"/><path class="cls-65" d="M384.72,208.47V384.56H321.07V208.47a16.27,16.27,0,0,0-32.53,0V384.56H224.9V208.47a16.28,16.28,0,0,0-32.55,0V384.56H128.72V208.47a79.93,79.93,0,0,1,128-63.84,79.93,79.93,0,0,1,128,63.84Z" transform="translate(0 0)"/><path class="cls-66" d="M384.66,208.43V384.51H321V208.43a16.27,16.27,0,0,0-32.53,0V384.51H224.84V208.43a16.28,16.28,0,0,0-32.55,0V384.51H128.66V208.43a79.94,79.94,0,0,1,128-63.85,79.94,79.94,0,0,1,128,63.85Z" transform="translate(0 0)"/><path class="cls-67" d="M384.6,208.38V384.46H321V208.38a16.27,16.27,0,0,0-32.53,0V384.46H224.78V208.38a16.28,16.28,0,0,0-32.55,0V384.46H128.6V208.38a79.93,79.93,0,0,1,128-63.84,79.93,79.93,0,0,1,128,63.84Z" transform="translate(0 0)"/><path class="cls-68" d="M384.54,208.33V384.42H320.89V208.33a16.27,16.27,0,0,0-32.53,0V384.42H224.72V208.33a16.28,16.28,0,0,0-32.55,0V384.42H128.54V208.33a79.93,79.93,0,0,1,128-63.84,79.93,79.93,0,0,1,128,63.84Z" transform="translate(0 0)"/><path class="cls-69" d="M384.48,208.29V384.37H320.83V208.29a16.27,16.27,0,0,0-32.53,0V384.37H224.66V208.29a16.28,16.28,0,0,0-32.55,0V384.37H128.48V208.29a79.94,79.94,0,0,1,128-63.85,79.94,79.94,0,0,1,128,63.85Z" transform="translate(0 0)"/><path class="cls-70" d="M384.42,208.24V384.32H320.77V208.24a16.27,16.27,0,0,0-32.53,0V384.32H224.6V208.24a16.28,16.28,0,0,0-32.55,0V384.32H128.42V208.24a79.93,79.93,0,0,1,128-63.84,79.93,79.93,0,0,1,128,63.84Z" transform="translate(0 0)"/><path class="cls-71" d="M384.36,208.19V384.28H320.71V208.19a16.27,16.27,0,0,0-32.53,0V384.28H224.54V208.19a16.28,16.28,0,0,0-32.55,0V384.28H128.36V208.19a79.93,79.93,0,0,1,128-63.84,79.93,79.93,0,0,1,128,63.84Z" transform="translate(0 0)"/><path class="cls-72" d="M384.3,208.15V384.23H320.65V208.15a16.27,16.27,0,0,0-32.53,0V384.23H224.48V208.15a16.28,16.28,0,0,0-32.55,0V384.23H128.3V208.15a79.94,79.94,0,0,1,128-63.85,79.94,79.94,0,0,1,128,63.85Z" transform="translate(0 0)"/><path class="cls-73" d="M384.24,208.1V384.18H320.59V208.1a16.27,16.27,0,0,0-32.53,0V384.18H224.42V208.1a16.28,16.28,0,0,0-32.55,0V384.18H128.24V208.1a79.93,79.93,0,0,1,128-63.84,79.93,79.93,0,0,1,128,63.84Z" transform="translate(0 0)"/><path class="cls-74" d="M384.18,208.05V384.14H320.53V208.05a16.27,16.27,0,0,0-32.53,0V384.14H224.36V208.05a16.28,16.28,0,0,0-32.55,0V384.14H128.18V208.05a79.93,79.93,0,0,1,128-63.84,79.93,79.93,0,0,1,128,63.84Z" transform="translate(0 0)"/><path class="cls-75" d="M384.12,208V384.09H320.47V208a16.27,16.27,0,0,0-32.53,0V384.09H224.3V208a16.28,16.28,0,0,0-32.55,0V384.09H128.12V208a79.94,79.94,0,0,1,128-63.85,79.94,79.94,0,0,1,128,63.85Z" transform="translate(0 0)"/><path class="cls-76" d="M384.06,208V384H320.41V208a16.27,16.27,0,0,0-32.53,0V384H224.24V208a16.28,16.28,0,0,0-32.55,0V384H128.06V208a79.93,79.93,0,0,1,128-63.84,79.93,79.93,0,0,1,128,63.84Z" transform="translate(0 0)"/><path class="cls-77" d="M384,207.91V384H320.35V207.91a16.27,16.27,0,0,0-32.53,0V384H224.18V207.91a16.28,16.28,0,0,0-32.55,0V384H128V207.91a79.93,79.93,0,0,1,128-63.84,79.93,79.93,0,0,1,128,63.84Z" transform="translate(0 0)"/><path class="cls-78" d="M383.94,207.87V384H320.29V207.87a16.27,16.27,0,0,0-32.53,0V384H224.12V207.87a16.28,16.28,0,0,0-32.55,0V384H127.94V207.87a79.94,79.94,0,0,1,128-63.85,79.94,79.94,0,0,1,128,63.85Z" transform="translate(0 0)"/><path class="cls-79" d="M383.88,207.82V383.9H320.23V207.82a16.27,16.27,0,0,0-32.53,0V383.9H224.06V207.82a16.28,16.28,0,0,0-32.55,0V383.9H127.88V207.82a79.93,79.93,0,0,1,128-63.84,79.93,79.93,0,0,1,128,63.84Z" transform="translate(0 0)"/><path class="cls-80" d="M383.82,207.77V383.86H320.17V207.77a16.27,16.27,0,0,0-32.53,0V383.86H224V207.77a16.28,16.28,0,0,0-32.55,0V383.86H127.82V207.77a79.93,79.93,0,0,1,128-63.84,79.93,79.93,0,0,1,128,63.84Z" transform="translate(0 0)"/><path class="cls-81" d="M383.76,207.73V383.81H320.11V207.73a16.27,16.27,0,0,0-32.53,0V383.81H223.94V207.73a16.28,16.28,0,0,0-32.55,0V383.81H127.76V207.73a79.94,79.94,0,0,1,128-63.85,79.94,79.94,0,0,1,128,63.85Z" transform="translate(0 0)"/><path class="cls-82" d="M383.7,207.68V383.76H320.05V207.68a16.27,16.27,0,0,0-32.53,0V383.76H223.88V207.68a16.28,16.28,0,0,0-32.55,0V383.76H127.7V207.68a79.93,79.93,0,0,1,128-63.84,79.93,79.93,0,0,1,128,63.84Z" transform="translate(0 0)"/><path class="cls-83" d="M383.64,207.63V383.72H320V207.63a16.27,16.27,0,0,0-32.53,0V383.72H223.82V207.63a16.28,16.28,0,0,0-32.55,0V383.72H127.64V207.63a79.93,79.93,0,0,1,128-63.84,79.93,79.93,0,0,1,128,63.84Z" transform="translate(0 0)"/><path class="cls-84" d="M383.58,207.59V383.67H319.93V207.59a16.27,16.27,0,0,0-32.53,0V383.67H223.76V207.59a16.28,16.28,0,0,0-32.55,0V383.67H127.58V207.59a79.94,79.94,0,0,1,128-63.85,79.94,79.94,0,0,1,128,63.85Z" transform="translate(0 0)"/><path class="cls-85" d="M383.52,207.54V383.62H319.87V207.54a16.27,16.27,0,0,0-32.53,0V383.62H223.7V207.54a16.28,16.28,0,0,0-32.55,0V383.62H127.52V207.54a79.93,79.93,0,0,1,128-63.84,79.93,79.93,0,0,1,128,63.84Z" transform="translate(0 0)"/><path class="cls-86" d="M383.46,207.49V383.58H319.81V207.49a16.27,16.27,0,0,0-32.53,0V383.58H223.64V207.49a16.28,16.28,0,0,0-32.55,0V383.58H127.46V207.49a79.93,79.93,0,0,1,128-63.84,79.93,79.93,0,0,1,128,63.84Z" transform="translate(0 0)"/><path class="cls-87" d="M383.4,207.45V383.53H319.75V207.45a16.27,16.27,0,0,0-32.53,0V383.53H223.58V207.45a16.28,16.28,0,0,0-32.55,0V383.53H127.4V207.45a79.94,79.94,0,0,1,128-63.85,79.94,79.94,0,0,1,128,63.85Z" transform="translate(0 0)"/><path class="cls-88" d="M383.34,207.4V383.48H319.69V207.4a16.27,16.27,0,0,0-32.53,0V383.48H223.52V207.4a16.28,16.28,0,0,0-32.55,0V383.48H127.34V207.4a79.93,79.93,0,0,1,128-63.84,79.93,79.93,0,0,1,128,63.84Z" transform="translate(0 0)"/><path class="cls-89" d="M383.28,207.35V383.44H319.63V207.35a16.27,16.27,0,0,0-32.53,0V383.44H223.46V207.35a16.28,16.28,0,0,0-32.55,0V383.44H127.28V207.35a79.93,79.93,0,0,1,128-63.84,79.93,79.93,0,0,1,128,63.84Z" transform="translate(0 0)"/><path class="cls-90" d="M383.22,207.31V383.39H319.57V207.31a16.27,16.27,0,0,0-32.53,0V383.39H223.4V207.31a16.28,16.28,0,0,0-32.55,0V383.39H127.22V207.31a79.94,79.94,0,0,1,128-63.85,79.94,79.94,0,0,1,128,63.85Z" transform="translate(0 0)"/><path class="cls-91" d="M383.16,207.26V383.34H319.51V207.26a16.27,16.27,0,0,0-32.53,0V383.34H223.34V207.26a16.28,16.28,0,0,0-32.55,0V383.34H127.16V207.26a79.93,79.93,0,0,1,128-63.84,79.93,79.93,0,0,1,128,63.84Z" transform="translate(0 0)"/><path class="cls-92" d="M383.1,207.21V383.3H319.45V207.21a16.27,16.27,0,0,0-32.53,0V383.3H223.28V207.21a16.28,16.28,0,0,0-32.55,0V383.3H127.1V207.21a79.93,79.93,0,0,1,128-63.84,79.93,79.93,0,0,1,128,63.84Z" transform="translate(0 0)"/><path class="cls-93" d="M383,207.17V383.25H319.39V207.17a16.27,16.27,0,0,0-32.53,0V383.25H223.22V207.17a16.28,16.28,0,0,0-32.55,0V383.25H127V207.17a79.94,79.94,0,0,1,128-63.85,79.94,79.94,0,0,1,128,63.85Z" transform="translate(0 0)"/><path class="cls-94" d="M383,207.12V383.2H319.33V207.12a16.27,16.27,0,0,0-32.53,0V383.2H223.16V207.12a16.28,16.28,0,0,0-32.55,0V383.2H127V207.12a79.93,79.93,0,0,1,128-63.84,79.93,79.93,0,0,1,128,63.84Z" transform="translate(0 0)"/><path class="cls-95" d="M382.92,207.07V383.16H319.27V207.07a16.27,16.27,0,0,0-32.53,0V383.16H223.1V207.07a16.28,16.28,0,0,0-32.55,0V383.16H126.92V207.07a79.93,79.93,0,0,1,128-63.84,79.93,79.93,0,0,1,128,63.84Z" transform="translate(0 0)"/><path class="cls-96" d="M382.86,207V383.11H319.21V207a16.27,16.27,0,0,0-32.53,0V383.11H223V207a16.28,16.28,0,0,0-32.55,0V383.11H126.86V207a79.94,79.94,0,0,1,128-63.85,79.94,79.94,0,0,1,128,63.85Z" transform="translate(0 0)"/><path class="cls-97" d="M382.8,207V383.06H319.15V207a16.27,16.27,0,0,0-32.53,0V383.06H223V207a16.28,16.28,0,0,0-32.55,0V383.06H126.8V207a79.93,79.93,0,0,1,128-63.84A79.93,79.93,0,0,1,382.8,207Z" transform="translate(0 0)"/><path class="cls-98" d="M382.74,206.93V383H319.09V206.93a16.27,16.27,0,0,0-32.53,0V383H222.92V206.93a16.28,16.28,0,0,0-32.55,0V383H126.74V206.93a79.93,79.93,0,0,1,128-63.84,79.93,79.93,0,0,1,128,63.84Z" transform="translate(0 0)"/><path class="cls-99" d="M382.68,206.89V383H319V206.89a16.27,16.27,0,0,0-32.53,0V383H222.86V206.89a16.28,16.28,0,0,0-32.55,0V383H126.68V206.89a79.94,79.94,0,0,1,128-63.85,79.94,79.94,0,0,1,128,63.85Z" transform="translate(0 0)"/><path class="cls-100" d="M382.62,206.84V382.92H319V206.84a16.27,16.27,0,0,0-32.53,0V382.92H222.8V206.84a16.28,16.28,0,0,0-32.55,0V382.92H126.62V206.84a79.93,79.93,0,0,1,128-63.84,79.93,79.93,0,0,1,128,63.84Z" transform="translate(0 0)"/><path class="cls-101" d="M382.56,206.79V382.88H318.91V206.79a16.27,16.27,0,0,0-32.53,0V382.88H222.74V206.79a16.28,16.28,0,0,0-32.55,0V382.88H126.56V206.79a79.93,79.93,0,0,1,128-63.84,79.93,79.93,0,0,1,128,63.84Z" transform="translate(0 0)"/><path class="cls-102" d="M382.5,206.75V382.83H318.85V206.75a16.27,16.27,0,0,0-32.53,0V382.83H222.68V206.75a16.28,16.28,0,0,0-32.55,0V382.83H126.5V206.75a79.94,79.94,0,0,1,128-63.85,79.94,79.94,0,0,1,128,63.85Z" transform="translate(0 0)"/><path class="cls-103" d="M382.44,206.7V382.78H318.79V206.7a16.27,16.27,0,0,0-32.53,0V382.78H222.62V206.7a16.28,16.28,0,0,0-32.55,0V382.78H126.44V206.7a79.93,79.93,0,0,1,128-63.84,79.93,79.93,0,0,1,128,63.84Z" transform="translate(0 0)"/><path class="cls-104" d="M382.38,206.65V382.74H318.73V206.65a16.27,16.27,0,0,0-32.53,0V382.74H222.56V206.65a16.28,16.28,0,0,0-32.55,0V382.74H126.38V206.65a79.93,79.93,0,0,1,128-63.84,79.93,79.93,0,0,1,128,63.84Z" transform="translate(0 0)"/><path class="cls-105" d="M382.32,206.61V382.69H318.67V206.61a16.27,16.27,0,0,0-32.53,0V382.69H222.5V206.61a16.28,16.28,0,0,0-32.55,0V382.69H126.32V206.61a79.94,79.94,0,0,1,128-63.85,79.94,79.94,0,0,1,128,63.85Z" transform="translate(0 0)"/><path class="cls-106" d="M382.26,206.56V382.64H318.61V206.56a16.27,16.27,0,0,0-32.53,0V382.64H222.44V206.56a16.28,16.28,0,0,0-32.55,0V382.64H126.26V206.56a79.93,79.93,0,0,1,128-63.84,79.93,79.93,0,0,1,128,63.84Z" transform="translate(0 0)"/><path class="cls-107" d="M382.2,206.51V382.6H318.55V206.51a16.27,16.27,0,0,0-32.53,0V382.6H222.38V206.51a16.28,16.28,0,0,0-32.55,0V382.6H126.2V206.51a79.93,79.93,0,0,1,128-63.84,79.93,79.93,0,0,1,128,63.84Z" transform="translate(0 0)"/><path class="cls-108" d="M382.14,206.47V382.55H318.49V206.47a16.27,16.27,0,0,0-32.53,0V382.55H222.32V206.47a16.28,16.28,0,0,0-32.55,0V382.55H126.14V206.47a79.94,79.94,0,0,1,128-63.85,79.94,79.94,0,0,1,128,63.85Z" transform="translate(0 0)"/><path class="cls-109" d="M382.08,206.42V382.5H318.43V206.42a16.27,16.27,0,0,0-32.53,0V382.5H222.26V206.42a16.28,16.28,0,0,0-32.55,0V382.5H126.08V206.42a79.93,79.93,0,0,1,128-63.84,79.93,79.93,0,0,1,128,63.84Z" transform="translate(0 0)"/><path class="cls-110" d="M382,206.37V382.46H318.37V206.37a16.27,16.27,0,0,0-32.53,0V382.46H222.2V206.37a16.28,16.28,0,0,0-32.55,0V382.46H126V206.37a79.93,79.93,0,0,1,128-63.84,79.93,79.93,0,0,1,128,63.84Z" transform="translate(0 0)"/><path class="cls-111" d="M382,206.33V382.41H318.31V206.33a16.27,16.27,0,0,0-32.53,0V382.41H222.14V206.33a16.28,16.28,0,0,0-32.55,0V382.41H126V206.33a79.94,79.94,0,0,1,128-63.85,79.94,79.94,0,0,1,128,63.85Z" transform="translate(0 0)"/><path class="cls-112" d="M381.9,206.28V382.36H318.25V206.28a16.27,16.27,0,0,0-32.53,0V382.36H222.08V206.28a16.28,16.28,0,0,0-32.55,0V382.36H125.9V206.28a79.93,79.93,0,0,1,128-63.84,79.93,79.93,0,0,1,128,63.84Z" transform="translate(0 0)"/><path class="cls-113" d="M381.84,206.23V382.32H318.19V206.23a16.27,16.27,0,0,0-32.53,0V382.32H222V206.23a16.28,16.28,0,0,0-32.55,0V382.32H125.84V206.23a79.93,79.93,0,0,1,128-63.84,79.93,79.93,0,0,1,128,63.84Z" transform="translate(0 0)"/><path class="cls-114" d="M381.78,206.19V382.27H318.13V206.19a16.27,16.27,0,0,0-32.53,0V382.27H222V206.19a16.28,16.28,0,0,0-32.55,0V382.27H125.78V206.19a79.94,79.94,0,0,1,128-63.85,79.94,79.94,0,0,1,128,63.85Z" transform="translate(0 0)"/><path class="cls-115" d="M381.72,206.14V382.22H318.07V206.14a16.27,16.27,0,0,0-32.53,0V382.22H221.9V206.14a16.28,16.28,0,0,0-32.55,0V382.22H125.72V206.14a79.93,79.93,0,0,1,128-63.84,79.93,79.93,0,0,1,128,63.84Z" transform="translate(0 0)"/><path class="cls-116" d="M381.66,206.09V382.18H318V206.09a16.27,16.27,0,0,0-32.53,0V382.18H221.84V206.09a16.28,16.28,0,0,0-32.55,0V382.18H125.66V206.09a79.93,79.93,0,0,1,128-63.84,79.93,79.93,0,0,1,128,63.84Z" transform="translate(0 0)"/><path class="cls-117" d="M381.6,206.05V382.13H318V206.05a16.27,16.27,0,0,0-32.53,0V382.13H221.78V206.05a16.28,16.28,0,0,0-32.55,0V382.13H125.6V206.05a79.94,79.94,0,0,1,128-63.85,79.94,79.94,0,0,1,128,63.85Z" transform="translate(0 0)"/><path class="cls-118" d="M381.54,206V382.08H317.89V206a16.27,16.27,0,0,0-32.53,0V382.08H221.72V206a16.28,16.28,0,0,0-32.55,0V382.08H125.54V206a79.93,79.93,0,0,1,128-63.84,79.93,79.93,0,0,1,128,63.84Z" transform="translate(0 0)"/><path class="cls-119" d="M381.48,206V382H317.83V206a16.27,16.27,0,0,0-32.53,0V382H221.66V206a16.28,16.28,0,0,0-32.55,0V382H125.48V206a79.93,79.93,0,0,1,128-63.84,79.93,79.93,0,0,1,128,63.84Z" transform="translate(0 0)"/><path class="cls-120" d="M381.42,205.91V382H317.77V205.91a16.27,16.27,0,0,0-32.53,0V382H221.6V205.91a16.28,16.28,0,0,0-32.55,0V382H125.42V205.91a79.94,79.94,0,0,1,128-63.85,79.94,79.94,0,0,1,128,63.85Z" transform="translate(0 0)"/><path class="cls-121" d="M381.36,205.86V381.94H317.71V205.86a16.27,16.27,0,0,0-32.53,0V381.94H221.54V205.86a16.28,16.28,0,0,0-32.55,0V381.94H125.36V205.86a79.93,79.93,0,0,1,128-63.84,79.93,79.93,0,0,1,128,63.84Z" transform="translate(0 0)"/><path class="cls-122" d="M381.3,205.81V381.9H317.65V205.81a16.27,16.27,0,0,0-32.53,0V381.9H221.48V205.81a16.28,16.28,0,0,0-32.55,0V381.9H125.3V205.81A79.93,79.93,0,0,1,253.3,142a79.93,79.93,0,0,1,128,63.84Z" transform="translate(0 0)"/><path class="cls-123" d="M381.24,205.77V381.85H317.59V205.77a16.27,16.27,0,0,0-32.53,0V381.85H221.42V205.77a16.28,16.28,0,0,0-32.55,0V381.85H125.24V205.77a79.94,79.94,0,0,1,128-63.85,79.94,79.94,0,0,1,128,63.85Z" transform="translate(0 0)"/><path class="cls-124" d="M381.18,205.72V381.8H317.53V205.72a16.27,16.27,0,0,0-32.53,0V381.8H221.36V205.72a16.28,16.28,0,0,0-32.55,0V381.8H125.18V205.72a79.93,79.93,0,0,1,128-63.84,79.93,79.93,0,0,1,128,63.84Z" transform="translate(0 0)"/><path class="cls-125" d="M381.12,205.67V381.76H317.47V205.67a16.27,16.27,0,0,0-32.53,0V381.76H221.3V205.67a16.28,16.28,0,0,0-32.55,0V381.76H125.12V205.67a79.93,79.93,0,0,1,128-63.84,79.93,79.93,0,0,1,128,63.84Z" transform="translate(0 0)"/><path class="cls-126" d="M381.06,205.63V381.71H317.41V205.63a16.27,16.27,0,0,0-32.53,0V381.71H221.24V205.63a16.28,16.28,0,0,0-32.55,0V381.71H125.06V205.63a79.94,79.94,0,0,1,128-63.85,79.94,79.94,0,0,1,128,63.85Z" transform="translate(0 0)"/><path class="cls-127" d="M381,205.58V381.66H317.35V205.58a16.27,16.27,0,0,0-32.53,0V381.66H221.18V205.58a16.28,16.28,0,0,0-32.55,0V381.66H125V205.58a79.93,79.93,0,0,1,128-63.84,79.93,79.93,0,0,1,128,63.84Z" transform="translate(0 0)"/><path class="cls-128" d="M380.94,205.53V381.62H317.29V205.53a16.27,16.27,0,0,0-32.53,0V381.62H221.12V205.53a16.28,16.28,0,0,0-32.55,0V381.62H124.94V205.53a79.93,79.93,0,0,1,128-63.84,79.93,79.93,0,0,1,128,63.84Z" transform="translate(0 0)"/><path class="cls-129" d="M380.88,205.49V381.57H317.23V205.49a16.27,16.27,0,0,0-32.53,0V381.57H221.06V205.49a16.28,16.28,0,0,0-32.55,0V381.57H124.88V205.49a79.94,79.94,0,0,1,128-63.85,79.94,79.94,0,0,1,128,63.85Z" transform="translate(0 0)"/><path class="cls-130" d="M380.82,205.44V381.52H317.17V205.44a16.27,16.27,0,0,0-32.53,0V381.52H221V205.44a16.28,16.28,0,0,0-32.55,0V381.52H124.82V205.44a79.93,79.93,0,0,1,128-63.84,79.93,79.93,0,0,1,128,63.84Z" transform="translate(0 0)"/><path class="cls-131" d="M380.76,205.39V381.48H317.11V205.39a16.27,16.27,0,0,0-32.53,0V381.48H220.94V205.39a16.28,16.28,0,0,0-32.55,0V381.48H124.76V205.39a79.93,79.93,0,0,1,128-63.84,79.93,79.93,0,0,1,128,63.84Z" transform="translate(0 0)"/><path class="cls-132" d="M380.7,205.35V381.43H317.05V205.35a16.27,16.27,0,0,0-32.53,0V381.43H220.88V205.35a16.28,16.28,0,0,0-32.55,0V381.43H124.7V205.35a79.94,79.94,0,0,1,128-63.85,79.94,79.94,0,0,1,128,63.85Z" transform="translate(0 0)"/><path class="cls-133" d="M380.64,205.3V381.38H317V205.3a16.27,16.27,0,0,0-32.53,0V381.38H220.82V205.3a16.28,16.28,0,0,0-32.55,0V381.38H124.64V205.3a79.93,79.93,0,0,1,128-63.84,79.93,79.93,0,0,1,128,63.84Z" transform="translate(0 0)"/><path class="cls-134" d="M380.58,205.25V381.34H316.93V205.25a16.27,16.27,0,0,0-32.53,0V381.34H220.76V205.25a16.28,16.28,0,0,0-32.55,0V381.34H124.58V205.25a79.93,79.93,0,0,1,128-63.84,79.93,79.93,0,0,1,128,63.84Z" transform="translate(0 0)"/><path class="cls-135" d="M380.52,205.21V381.29H316.87V205.21a16.27,16.27,0,0,0-32.53,0V381.29H220.7V205.21a16.28,16.28,0,0,0-32.55,0V381.29H124.52V205.21a79.94,79.94,0,0,1,128-63.85,79.94,79.94,0,0,1,128,63.85Z" transform="translate(0 0)"/><path class="cls-136" d="M380.46,205.16V381.24H316.81V205.16a16.27,16.27,0,0,0-32.53,0V381.24H220.64V205.16a16.28,16.28,0,0,0-32.55,0V381.24H124.46V205.16a79.93,79.93,0,0,1,128-63.84,79.93,79.93,0,0,1,128,63.84Z" transform="translate(0 0)"/><path class="cls-137" d="M380.4,205.11V381.2H316.75V205.11a16.27,16.27,0,0,0-32.53,0V381.2H220.58V205.11a16.28,16.28,0,0,0-32.55,0V381.2H124.4V205.11a79.93,79.93,0,0,1,128-63.84,79.93,79.93,0,0,1,128,63.84Z" transform="translate(0 0)"/><path class="cls-138" d="M380.34,205.07V381.15H316.69V205.07a16.27,16.27,0,0,0-32.53,0V381.15H220.52V205.07a16.28,16.28,0,0,0-32.55,0V381.15H124.34V205.07a79.94,79.94,0,0,1,128-63.85,79.94,79.94,0,0,1,128,63.85Z" transform="translate(0 0)"/><path class="cls-139" d="M380.28,205V381.1H316.63V205a16.27,16.27,0,0,0-32.53,0V381.1H220.46V205a16.28,16.28,0,0,0-32.55,0V381.1H124.28V205a79.93,79.93,0,0,1,128-63.84,79.93,79.93,0,0,1,128,63.84Z" transform="translate(0 0)"/><path class="cls-140" d="M380.22,205V381.06H316.57V205A16.27,16.27,0,0,0,284,205V381.06H220.4V205a16.28,16.28,0,0,0-32.55,0V381.06H124.22V205a79.93,79.93,0,0,1,128-63.84,79.93,79.93,0,0,1,128,63.84Z" transform="translate(0 0)"/><path class="cls-141" d="M380.16,204.93V381H316.51V204.93a16.27,16.27,0,0,0-32.53,0V381H220.34V204.93a16.28,16.28,0,0,0-32.55,0V381H124.16V204.93a79.94,79.94,0,0,1,128-63.85,79.94,79.94,0,0,1,128,63.85Z" transform="translate(0 0)"/><path class="cls-142" d="M380.1,204.88V381H316.45V204.88a16.27,16.27,0,0,0-32.53,0V381H220.28V204.88a16.28,16.28,0,0,0-32.55,0V381H124.1V204.88A79.93,79.93,0,0,1,252.1,141a79.93,79.93,0,0,1,128,63.84Z" transform="translate(0 0)"/><path class="cls-143" d="M380,204.83V380.92H316.39V204.83a16.27,16.27,0,0,0-32.53,0V380.92H220.22V204.83a16.28,16.28,0,0,0-32.55,0V380.92H124V204.83A79.93,79.93,0,0,1,252,141a79.93,79.93,0,0,1,128,63.84Z" transform="translate(0 0)"/><path class="cls-144" d="M380,204.79V380.87H316.33V204.79a16.27,16.27,0,0,0-32.53,0V380.87H220.16V204.79a16.28,16.28,0,0,0-32.55,0V380.87H124V204.79a79.94,79.94,0,0,1,128-63.85,79.94,79.94,0,0,1,128,63.85Z" transform="translate(0 0)"/><path class="cls-145" d="M379.92,204.74V380.82H316.27V204.74a16.27,16.27,0,0,0-32.53,0V380.82H220.1V204.74a16.28,16.28,0,0,0-32.55,0V380.82H123.92V204.74a79.93,79.93,0,0,1,128-63.84,79.93,79.93,0,0,1,128,63.84Z" transform="translate(0 0)"/><path class="cls-146" d="M379.86,204.69V380.78H316.21V204.69a16.27,16.27,0,0,0-32.53,0V380.78H220V204.69a16.28,16.28,0,0,0-32.55,0V380.78H123.86V204.69a79.93,79.93,0,0,1,128-63.84,79.93,79.93,0,0,1,128,63.84Z" transform="translate(0 0)"/><path class="cls-147" d="M379.8,204.65V380.73H316.15V204.65a16.27,16.27,0,0,0-32.53,0V380.73H220V204.65a16.28,16.28,0,0,0-32.55,0V380.73H123.8V204.65a79.94,79.94,0,0,1,128-63.85,79.94,79.94,0,0,1,128,63.85Z" transform="translate(0 0)"/><path class="cls-148" d="M379.74,204.6V380.68H316.09V204.6a16.27,16.27,0,0,0-32.53,0V380.68H219.92V204.6a16.28,16.28,0,0,0-32.55,0V380.68H123.74V204.6a79.93,79.93,0,0,1,128-63.84,79.93,79.93,0,0,1,128,63.84Z" transform="translate(0 0)"/><path class="cls-149" d="M379.68,204.55V380.64H316V204.55a16.27,16.27,0,0,0-32.53,0V380.64H219.86V204.55a16.28,16.28,0,0,0-32.55,0V380.64H123.68V204.55a79.93,79.93,0,0,1,128-63.84,79.93,79.93,0,0,1,128,63.84Z" transform="translate(0 0)"/><path class="cls-150" d="M379.62,204.51V380.59H316V204.51a16.27,16.27,0,0,0-32.53,0V380.59H219.8V204.51a16.28,16.28,0,0,0-32.55,0V380.59H123.62V204.51a79.94,79.94,0,0,1,128-63.85,79.94,79.94,0,0,1,128,63.85Z" transform="translate(0 0)"/><path class="cls-151" d="M379.56,204.46V380.54H315.91V204.46a16.27,16.27,0,0,0-32.53,0V380.54H219.74V204.46a16.28,16.28,0,0,0-32.55,0V380.54H123.56V204.46a79.93,79.93,0,0,1,128-63.84,79.93,79.93,0,0,1,128,63.84Z" transform="translate(0 0)"/><path class="cls-152" d="M379.5,204.41V380.5H315.85V204.41a16.27,16.27,0,0,0-32.53,0V380.5H219.68V204.41a16.28,16.28,0,0,0-32.55,0V380.5H123.5V204.41a79.93,79.93,0,0,1,128-63.84,79.93,79.93,0,0,1,128,63.84Z" transform="translate(0 0)"/></svg>