<svg xmlns="http://www.w3.org/2000/svg" data-name="Layer 1" viewBox="0 0 1024 158.79">
  <path d="M0 158.78V47.1q0-20.78 12.6-33.94T45.28 0h75.59q20.88 0 32 13.16T164 51.07v107.71h-46.08V57.99q0-7.48-1.19-9.93c-.79-1.62-2.4-2.44-4.82-2.44q-6.81 0-6.81 11.58v101.58H59V57.99q0-7.38-1.25-9.87t-4.88-2.5q-6.81 0-6.81 12.37v100.79ZM219.27 45.62v113.16h-42.44V45.62ZM198.16 0a20.78 20.78 0 0 1 14.93 6.07 20.07 20.07 0 0 1 .34 28.88q-6 5.69-15.27 5.68t-15.26-5.68a20.07 20.07 0 0 1 .34-28.88A20.76 20.76 0 0 1 198.16 0Zm92.62 45.62h42.44v24.86q0 10.66-3.12 17.19t-10.72 11.52q7.71 5.22 10.78 11.47t3.06 16.34v31.78h-42.44v-34.16q0-11.69-8.17-11.69-8 0-7.95 10.1v35.75h-42.45v-30.19q0-10.44 3.8-17t13.23-12.38q-9.42-6.12-13.23-12.94t-3.8-17.36V45.62h42.45v28.6a11.22 11.22 0 0 0 2.27 7.27 7.09 7.09 0 0 0 5.79 2.84q8.05 0 8.06-10.11Zm67.41 113.16V47.1q0-20.78 12.59-33.94T403.47 0h75.59q20.88 0 32 13.16t11.12 37.91v107.71h-46.07V57.99q0-7.48-1.19-9.93c-.8-1.62-2.4-2.44-4.82-2.44q-6.81 0-6.82 11.58v101.58H417.2V57.99q0-7.38-1.24-9.87c-.84-1.67-2.46-2.5-4.88-2.5q-6.82 0-6.82 12.37v100.79Zm277.18-97.74q-15.52-15.4-42.47-15.41-24.15 0-41 16.46A53.93 53.93 0 0 0 535 102.2q0 24.3 16.71 40.44t41.73 16.14h57.44v-55.6q.01-26.7-15.51-42.14Zm-42.6 57.65a16.49 16.49 0 1 1 16.49-16.49 16.48 16.48 0 0 1-16.49 16.49ZM747 45.62v44.15q-9.1 0-12.49 3.3t-4.31 13.05q-3 32.38-25.78 45.71-12.09 6.94-34.29 6.95h-6v-44.39h2q10.36 0 14.79-4.2t5.12-14.73q.91-17.14 3.28-24.09t9.61-13.78q12.64-12 35.09-12ZM802.31 0v45.62h19.07v44.36h-19.07c0 8.91 1.42 16.13 4.25 19.5s8 5.05 15.61 5.05v44.13c-2.19.08-3.82.12-4.88.12a58.14 58.14 0 0 1-27.18-6.63 54.76 54.76 0 0 1-20.49-18q-9.76-14.49-9.76-38.41V0Zm147.62 108.9h-63a28 28 0 0 1 .56-19.28h21.1q-2.22-12.09-13.88-12.09a15.17 15.17 0 0 0-12.67 6.48q-4.87 6.48-4.89 16.61 0 10.56 4.73 17.1a14.58 14.58 0 0 0 12.38 6.54q6.22 0 12-6.1l23.67 27.88a58.9 58.9 0 0 1-36.78 12.74q-24.66 0-41.44-16.23T835 102.39q0-23.85 16.94-40.29t41.61-16.45q24.11 0 40.49 16.07t16.39 39.59q-.05 2.36-.5 7.59ZM1024 46.85v44.46a16.36 16.36 0 0 0-7.89-2.45q-11.34 0-11.34 17.34v52.58H963.2V98.2q0-24 13.12-38.29t35-14.29a84.71 84.71 0 0 1 12.68 1.23Z"/>
</svg>
