<svg id="Layer_1" data-name="Layer 1" xmlns="http://www.w3.org/2000/svg" viewBox="0 0 1024 153.92"><defs><style>.cls-1{fill:#fff;}</style></defs><path class="cls-1" d="M0,333V224.7q0-20.14,12.21-32.9T43.89,179h73.28q20.24,0,31,12.76T159,228.55V333H114.3V235.26q0-7.26-1.15-9.63t-4.67-2.36q-6.62,0-6.61,11.22V333H57.21V235.26c0-4.77-.41-8-1.21-9.57s-2.39-2.42-4.73-2.42q-6.62,0-6.61,12V333Z" transform="translate(0 -179.04)"/><path class="cls-1" d="M224.1,223.27V333H183V223.27ZM203.64,179a20.13,20.13,0,0,1,14.47,5.89,19.48,19.48,0,0,1,.33,28q-5.77,5.49-14.8,5.5t-14.8-5.5a19.48,19.48,0,0,1,.33-28A20.13,20.13,0,0,1,203.64,179Z" transform="translate(0 -179.04)"/><path class="cls-1" d="M303.64,223.27h41.15v24.09q0,10.35-3,16.67t-10.39,11.16q7.47,5.07,10.45,11.12t3,15.84V333H303.64V299.84q0-11.32-7.92-11.33-7.7,0-7.7,9.79V333H246.88V303.69q0-10.12,3.68-16.5t12.82-12q-9.13-5.94-12.82-12.54t-3.68-16.83V223.27H288V251a10.89,10.89,0,0,0,2.2,7,6.87,6.87,0,0,0,5.61,2.75q7.82,0,7.81-9.79Z" transform="translate(0 -179.04)"/><path class="cls-1" d="M367.24,333V224.7q0-20.14,12.2-32.9T411.13,179H484.4q20.24,0,31,12.76t10.78,36.75V333H481.54V235.26q0-7.26-1.16-9.63c-.77-1.57-2.32-2.36-4.67-2.36q-6.6,0-6.6,11.22V333H424.44V235.26q0-7.15-1.21-9.57c-.81-1.62-2.38-2.42-4.73-2.42q-6.6,0-6.6,12V333Z" transform="translate(0 -179.04)"/><path class="cls-1" d="M641.41,238.21q-15-14.93-41.16-14.94-23.41,0-39.76,16a52.26,52.26,0,0,0-16.35,38.88q0,23.56,16.19,39.2T600.78,333h55.68v-53.9Q656.46,253.19,641.41,238.21Zm-41.28,55.88a16,16,0,1,1,16-16A16,16,0,0,1,600.13,294.09Z" transform="translate(0 -179.04)"/><path class="cls-1" d="M752.51,223.27v42.79q-8.82,0-12.11,3.2t-4.18,12.65q-2.9,31.39-25,44.31Q699.52,333,678,333h-5.8V290h1.9q10,0,14.33-4.08t5-14.28q.9-16.6,3.18-23.34t9.31-13.36q12.27-11.62,34-11.62Z" transform="translate(0 -179.04)"/><path class="cls-1" d="M801.47,179v44.23H820v43H801.47c0,8.64,1.37,15.64,4.12,18.91s7.8,4.9,15.13,4.9v42.77c-2.13.08-3.7.11-4.73.11a56.43,56.43,0,0,1-26.35-6.42,53.08,53.08,0,0,1-19.85-17.42q-9.46-14-9.47-37.22V179Z" transform="translate(0 -179.04)"/><path class="cls-1" d="M945.6,284.6H884.54a27.12,27.12,0,0,1,.54-18.68h20.46q-2.16-11.72-13.46-11.72a14.7,14.7,0,0,0-12.28,6.28q-4.74,6.28-4.74,16.1,0,10.25,4.58,16.57a14.14,14.14,0,0,0,12,6.34q6,0,11.63-5.91l22.94,27A57,57,0,0,1,890.57,333q-23.91,0-40.17-15.72t-16.26-39q0-23.11,16.42-39.06t40.33-15.94q23.37,0,39.26,15.57T946,277.21C946,278.76,945.88,281.23,945.6,284.6Z" transform="translate(0 -179.04)"/><path class="cls-1" d="M1024,224.45v43.1a15.84,15.84,0,0,0-7.65-2.37q-11,0-11,16.81v51H965.07V274.23q0-23.26,12.71-37.12t33.94-13.84A82.46,82.46,0,0,1,1024,224.45Z" transform="translate(0 -179.04)"/></svg>